<svg width="1920" height="976" viewBox="0 0 1920 976" fill="none" xmlns="http://www.w3.org/2000/svg">
<g clip-path="url(#clip0_5603_97051)">
<path opacity="0.7" d="M1833.66 -35.374C1836.19 -37.9003 1839.87 -38.8869 1843.32 -37.9622L2024.53 10.5926C2027.98 11.5173 2030.68 14.2128 2031.6 17.6637L2080.16 198.873C2081.08 202.324 2080.09 206.006 2077.57 208.532L1944.91 341.186C1942.39 343.713 1938.71 344.699 1935.25 343.774L1754.05 295.22C1750.59 294.295 1747.9 291.6 1746.97 288.149L1698.42 106.94C1697.49 103.489 1698.48 99.8065 1701.01 97.2802L1833.66 -35.374Z" fill="#E7F7FB"/>
<path opacity="0.7" d="M272.28 298.676C274.806 296.15 278.489 295.163 281.939 296.088L463.149 344.642C466.599 345.567 469.295 348.263 470.22 351.713L518.774 532.923C519.699 536.374 518.712 540.056 516.186 542.582L383.532 675.236C381.006 677.762 377.324 678.749 373.873 677.824L192.664 629.269C189.213 628.345 186.517 625.649 185.593 622.198L137.038 440.989C136.113 437.538 137.1 433.856 139.626 431.33L272.28 298.676Z" fill="#E7F7FB"/>
<path opacity="0.7" d="M1217.62 731.572C1220.79 733.226 1222.84 736.444 1222.99 740.013L1227.67 850.532C1227.82 854.102 1226.05 857.481 1223.04 859.396L1129.67 918.71C1126.65 920.626 1122.84 920.787 1119.68 919.133L1021.62 867.927C1018.46 866.273 1016.41 863.056 1016.26 859.486L1011.58 748.967C1011.43 745.398 1013.19 742.019 1016.21 740.103L1109.58 680.789C1112.6 678.874 1116.4 678.713 1119.57 680.366L1217.62 731.572Z" fill="#E7F7FB"/>
</g>
<defs>
<clipPath id="clip0_5603_97051">
<rect width="1920" height="976" fill="white"/>
</clipPath>
</defs>
</svg>
