<svg width="360" height="800" viewBox="0 0 360 800" fill="none" xmlns="http://www.w3.org/2000/svg">
<g clip-path="url(#clip0_5273_103086)">
<path opacity="0.4" d="M-93.7198 -71.3741C-91.1936 -73.9004 -87.5115 -74.887 -84.0606 -73.9623L97.1485 -25.4075C100.599 -24.4828 103.295 -21.7873 104.22 -18.3364L152.774 162.873C153.699 166.324 152.712 170.006 150.186 172.532L17.532 305.186C15.0057 307.712 11.3236 308.699 7.8727 307.774L-173.336 259.22C-176.787 258.295 -179.483 255.599 -180.407 252.149L-228.962 70.9394C-229.887 67.4885 -228.9 63.8064 -226.374 61.2802L-93.7198 -71.3741Z" fill="#BEE3F1"/>
<path opacity="0.4" d="M200.303 538.739C203.47 540.393 205.514 543.611 205.665 547.18L211.582 686.879C211.733 690.449 209.968 693.828 206.953 695.743L88.928 770.717C85.9124 772.633 82.1038 772.794 78.937 771.14L-45.0045 706.415C-48.1713 704.761 -50.2153 701.543 -50.3665 697.974L-56.2833 558.275C-56.4344 554.705 -54.6698 551.326 -51.6542 549.411L66.3704 474.437C69.3861 472.521 73.1947 472.36 76.3615 474.014L200.303 538.739Z" fill="#BEE3F1"/>
<path opacity="0.4" d="M385.28 141.626C387.806 139.1 391.489 138.113 394.939 139.038L576.149 187.593C579.599 188.517 582.295 191.213 583.22 194.664L631.774 375.873C632.699 379.324 631.712 383.006 629.186 385.532L496.532 518.186C494.006 520.712 490.324 521.699 486.873 520.774L305.664 472.22C302.213 471.295 299.517 468.599 298.593 465.149L250.038 283.939C249.113 280.489 250.1 276.806 252.626 274.28L385.28 141.626Z" fill="#BEE3F1"/>
</g>
<defs>
<clipPath id="clip0_5273_103086">
<rect width="360" height="800" fill="white"/>
</clipPath>
</defs>
</svg>
