<svg width="126" height="390" viewBox="0 0 126 390" fill="none" xmlns="http://www.w3.org/2000/svg">
<rect width="126" height="390" fill="#5E5E5E"/>
<g clip-path="url(#clip0_5603_96602)">
<rect width="1920" height="976" transform="translate(0 -586)" fill="white"/>
<path opacity="0.7" d="M272.28 -287.325C274.806 -289.851 278.489 -290.838 281.939 -289.913L463.149 -241.359C466.599 -240.434 469.295 -237.738 470.22 -234.287L518.774 -53.0784C519.699 -49.6274 518.712 -45.9454 516.186 -43.4191L383.532 89.2351C381.006 91.7614 377.324 92.748 373.873 91.8233L192.664 43.2685C189.213 42.3438 186.517 39.6484 185.593 36.1974L137.038 -145.012C136.113 -148.463 137.1 -152.145 139.626 -154.671L272.28 -287.325Z" fill="#E7F7FB"/>
<g filter="url(#filter0_dd_5603_96602)">
<rect width="224" height="976" transform="translate(0 -586)" fill="#153556"/>
<g clip-path="url(#clip1_5603_96602)">
<path opacity="0.7" d="M123.562 252.336C126.088 249.81 129.77 248.823 133.221 249.748L251.058 281.322C254.509 282.247 257.204 284.942 258.129 288.393L289.703 406.23C290.628 409.681 289.641 413.363 287.115 415.89L200.852 502.152C198.326 504.679 194.644 505.665 191.193 504.741L73.356 473.166C69.9051 472.241 67.2096 469.546 66.2849 466.095L34.7106 348.258C33.7859 344.807 34.7725 341.125 37.2987 338.599L123.562 252.336Z" fill="white" fill-opacity="0.05"/>
</g>
<path fill-rule="evenodd" clip-rule="evenodd" d="M124.678 209.117L115 217.267L115 341.307L108 334.875L108 232.781L100.881 226.199L110 217.718L110 105L109 105L109 217.282L100.144 225.518L84.5002 211.055L84.5002 152.5L83.5002 152.5L83.5002 210.13L55.0002 183.781L55.0002 61.4999L54.0002 61.4999L54.0002 184.219L83.5002 211.492L83.5002 240.997L59.0002 263.782L59.0002 364.006L46.5002 352.642L46.5002 313.5L45.5002 313.5L45.5002 351.733L37.5002 344.461L37.5002 232.778L5.50021 203.805L5.50021 196.718L40.5002 164.218L40.5002 12.9999L39.5002 12.9999L39.5002 163.782L4.50021 196.282L4.50021 202.9L0.335793 199.129L-0.33538 199.871L4.50021 204.249L4.5002 370.298L0.330712 366.625L-0.330314 367.375L4.5002 371.631L4.5002 390L5.5002 390L5.5002 372.512L20.5002 385.726L20.5002 390L21.5002 390L21.5002 385.274L5.5002 371.179L5.50021 205.154L36.5002 233.222L36.5002 343.551L23.0002 331.279L23.0002 238.5L22.0002 238.5L22.0002 331.721L36.5002 344.903L36.5002 390L37.5002 390L37.5002 345.812L45.5002 353.085L45.5002 390L46.5002 390L46.5002 353.994L59.0002 365.357L59.0002 390L60.0002 390L60.0002 366.267L71.5002 376.721L71.5002 390L72.5002 390L72.5002 376.279L60.0002 364.915L60.0002 264.218L83.5002 242.363L83.5002 313.72L107 335.314L107 390L108 390L108 336.233L115 342.665L115 377L120.5 377L120.5 390L121.5 390L121.5 377L125 377L125 376L121.5 376L121.5 347.28L116 342.226L116 217.733L125.322 209.882L124.678 209.117ZM116 343.584L120.5 347.72L120.5 376L116 376L116 343.584ZM107 333.956L84.5002 313.28L84.5002 241.433L100.146 226.882L107 233.219L107 333.956ZM99.4099 226.201L84.5002 240.067L84.5002 212.417L99.4099 226.201ZM96.0002 345.5L96.0002 390L97.0002 390L97.0002 345.5L96.0002 345.5ZM41.6672 171.127L13.6672 196.127L14.3332 196.873L42.3332 171.873L41.6672 171.127Z" fill="white" fill-opacity="0.05"/>
<path d="M64.5 321.5L64.5 326.5L72.5 326.5L72.5 321.5L64.5 321.5Z" fill="white" fill-opacity="0.05"/>
<path d="M64.5 331L64.5 336L72.5 336L72.5 331L64.5 331Z" fill="white" fill-opacity="0.05"/>
<path d="M64.5 340.5L64.5 345.5L72.5 345.5L72.5 340.5L64.5 340.5Z" fill="white" fill-opacity="0.05"/>
<path d="M22.5 226C18.9101 226 16 228.91 16 232.5C16 236.09 18.9101 239 22.5 239C26.0899 239 29 236.09 29 232.5C29 228.91 26.0899 226 22.5 226Z" fill="white" fill-opacity="0.05"/>
<path d="M46.5 301C42.9101 301 40 303.91 40 307.5C40 311.09 42.9101 314 46.5 314C50.0899 314 53 311.09 53 307.5C53 303.91 50.0899 301 46.5 301Z" fill="white" fill-opacity="0.05"/>
<path d="M84 143C80.6863 143 78 145.686 78 149C78 152.314 80.6863 155 84 155C87.3137 155 90 152.314 90 149C90 145.686 87.3137 143 84 143Z" fill="white" fill-opacity="0.05"/>
<path d="M109.5 93.5C105.91 93.5 103 96.4101 103 100C103 103.59 105.91 106.5 109.5 106.5C113.09 106.5 116 103.59 116 100C116 96.4101 113.09 93.5 109.5 93.5Z" fill="white" fill-opacity="0.05"/>
<path fill-rule="evenodd" clip-rule="evenodd" d="M49.0833 55.5C49.0833 52.5085 51.5085 50.0833 54.5 50.0833C57.4915 50.0833 59.9167 52.5085 59.9167 55.5C59.9167 58.4915 57.4915 60.9167 54.5 60.9167C51.5085 60.9167 49.0833 58.4915 49.0833 55.5ZM48 55.5C48 51.9101 50.9101 49 54.5 49C58.0899 49 61 51.9101 61 55.5C61 59.0899 58.0899 62 54.5 62C50.9101 62 48 59.0899 48 55.5Z" fill="white" fill-opacity="0.05"/>
<path fill-rule="evenodd" clip-rule="evenodd" d="M35.0833 6.5C35.0833 3.50846 37.5085 1.08333 40.5 1.08333C43.4915 1.08333 45.9167 3.50846 45.9167 6.5C45.9167 9.49154 43.4915 11.9167 40.5 11.9167C37.5085 11.9167 35.0833 9.49154 35.0833 6.5ZM34 6.5C34 2.91015 36.9101 -9.17879e-07 40.5 -7.60961e-07C44.0899 -6.04044e-07 47 2.91015 47 6.5C47 10.0899 44.0899 13 40.5 13C36.9101 13 34 10.0899 34 6.5Z" fill="white" fill-opacity="0.05"/>
</g>
</g>
<defs>
<filter id="filter0_dd_5603_96602" x="-20.335" y="-594" width="264.335" height="1016" filterUnits="userSpaceOnUse" color-interpolation-filters="sRGB">
<feFlood flood-opacity="0" result="BackgroundImageFix"/>
<feColorMatrix in="SourceAlpha" type="matrix" values="0 0 0 0 0 0 0 0 0 0 0 0 0 0 0 0 0 0 127 0" result="hardAlpha"/>
<feMorphology radius="4" operator="erode" in="SourceAlpha" result="effect1_dropShadow_5603_96602"/>
<feOffset dy="12"/>
<feGaussianBlur stdDeviation="12"/>
<feComposite in2="hardAlpha" operator="out"/>
<feColorMatrix type="matrix" values="0 0 0 0 0.5706 0 0 0 0 0.62 0 0 0 0 0.6694 0 0 0 0.12 0"/>
<feBlend mode="normal" in2="BackgroundImageFix" result="effect1_dropShadow_5603_96602"/>
<feColorMatrix in="SourceAlpha" type="matrix" values="0 0 0 0 0 0 0 0 0 0 0 0 0 0 0 0 0 0 127 0" result="hardAlpha"/>
<feOffset/>
<feGaussianBlur stdDeviation="1"/>
<feComposite in2="hardAlpha" operator="out"/>
<feColorMatrix type="matrix" values="0 0 0 0 0.5706 0 0 0 0 0.62 0 0 0 0 0.6694 0 0 0 0.2 0"/>
<feBlend mode="normal" in2="effect1_dropShadow_5603_96602" result="effect2_dropShadow_5603_96602"/>
<feBlend mode="normal" in="SourceGraphic" in2="effect2_dropShadow_5603_96602" result="shape"/>
</filter>
<clipPath id="clip0_5603_96602">
<rect width="1920" height="976" fill="white" transform="translate(0 -586)"/>
</clipPath>
<clipPath id="clip1_5603_96602">
<rect width="224" height="176" fill="white" transform="translate(0 214)"/>
</clipPath>
</defs>
</svg>
