<svg width="300" height="390" viewBox="0 0 300 390" fill="none" xmlns="http://www.w3.org/2000/svg">
<g clip-path="url(#clip0_5221_106505)">
<path opacity="0.7" d="M199.562 252.336C202.088 249.81 205.77 248.823 209.221 249.748L327.058 281.322C330.509 282.247 333.204 284.943 334.129 288.393L365.703 406.231C366.628 409.681 365.641 413.364 363.115 415.89L276.852 502.153C274.326 504.679 270.644 505.665 267.193 504.741L149.356 473.166C145.905 472.242 143.21 469.546 142.285 466.095L110.711 348.258C109.786 344.807 110.772 341.125 113.299 338.599L199.562 252.336Z" fill="white" fill-opacity="0.05"/>
<path fill-rule="evenodd" clip-rule="evenodd" d="M125.014 209.118L115.336 217.267L115.336 341.307L108.336 334.875L108.336 232.781L101.216 226.199L110.336 217.718L110.336 105L109.336 105L109.336 217.282L100.48 225.518L84.8356 211.055L84.8356 152.5L83.8356 152.5L83.8356 210.13L55.3356 183.781L55.3356 61.5L54.3356 61.5L54.3356 184.219L83.8356 211.492L83.8356 240.997L59.3356 263.782L59.3356 364.006L46.8356 352.642L46.8356 313.5L45.8356 313.5L45.8356 351.733L37.8356 344.461L37.8356 232.778L5.83559 203.805L5.83559 196.718L40.8356 164.218L40.8356 13L39.8356 13L39.8356 163.782L4.8356 196.282L4.83559 202.9L0.671181 199.129L8.31082e-06 199.871L4.83559 204.249L4.83559 370.298L0.666101 366.625L0.00507454 367.375L4.83559 371.631L4.83559 390L5.83559 390L5.83559 372.512L20.8356 385.726L20.8356 390L21.8356 390L21.8356 385.274L5.83559 371.179L5.83559 205.154L36.8356 233.222L36.8356 343.552L23.3356 331.279L23.3356 238.5L22.3356 238.5L22.3356 331.721L36.8356 344.903L36.8356 390L37.8356 390L37.8356 345.812L45.8356 353.085L45.8356 390L46.8356 390L46.8356 353.994L59.3356 365.358L59.3356 390L60.3356 390L60.3356 366.267L71.8356 376.721L71.8356 390L72.8356 390L72.8356 376.279L60.3356 364.915L60.3356 264.218L83.8356 242.363L83.8356 313.72L107.336 335.314L107.336 390L108.336 390L108.336 336.233L115.336 342.666L115.336 377L120.836 377L120.835 390L121.835 390L121.836 377L125.336 377L125.336 376L121.836 376L121.836 347.28L116.336 342.226L116.336 217.733L125.658 209.882L125.014 209.118ZM116.336 343.584L120.836 347.72L120.836 376L116.336 376L116.336 343.584ZM107.336 333.956L84.8356 313.28L84.8356 241.433L100.482 226.882L107.336 233.219L107.336 333.956ZM99.7453 226.201L84.8356 240.067L84.8356 212.417L99.7453 226.201ZM96.3356 345.5L96.3356 390L97.3356 390L97.3356 345.5L96.3356 345.5ZM42.0026 171.127L14.0026 196.127L14.6686 196.873L42.6686 171.873L42.0026 171.127Z" fill="white" fill-opacity="0.05"/>
<path d="M64.8354 321.5L64.8354 326.5L72.8354 326.5L72.8354 321.5L64.8354 321.5Z" fill="white" fill-opacity="0.05"/>
<path d="M64.8354 331L64.8354 336L72.8354 336L72.8354 331L64.8354 331Z" fill="white" fill-opacity="0.05"/>
<path d="M64.8354 340.5L64.8354 345.5L72.8354 345.5L72.8354 340.5L64.8354 340.5Z" fill="white" fill-opacity="0.05"/>
<path d="M22.8354 226C19.2456 226 16.3354 228.91 16.3354 232.5C16.3354 236.09 19.2456 239 22.8354 239C26.4253 239 29.3354 236.09 29.3354 232.5C29.3354 228.91 26.4253 226 22.8354 226Z" fill="white" fill-opacity="0.05"/>
<path d="M46.8354 301C43.2456 301 40.3354 303.91 40.3354 307.5C40.3354 311.09 43.2456 314 46.8354 314C50.4253 314 53.3354 311.09 53.3354 307.5C53.3354 303.91 50.4253 301 46.8354 301Z" fill="white" fill-opacity="0.05"/>
<path d="M84.3356 143C81.0219 143 78.3356 145.686 78.3356 149C78.3356 152.314 81.0219 155 84.3356 155C87.6493 155 90.3356 152.314 90.3356 149C90.3356 145.686 87.6493 143 84.3356 143Z" fill="white" fill-opacity="0.05"/>
<path d="M109.835 93.5C106.246 93.5 103.335 96.4101 103.335 100C103.335 103.59 106.246 106.5 109.835 106.5C113.425 106.5 116.335 103.59 116.335 100C116.335 96.4101 113.425 93.5 109.835 93.5Z" fill="white" fill-opacity="0.05"/>
<path fill-rule="evenodd" clip-rule="evenodd" d="M49.4188 55.5C49.4188 52.5085 51.8439 50.0833 54.8354 50.0833C57.827 50.0833 60.2521 52.5085 60.2521 55.5C60.2521 58.4915 57.827 60.9167 54.8354 60.9167C51.8439 60.9167 49.4188 58.4915 49.4188 55.5ZM48.3354 55.5C48.3354 51.9101 51.2456 49 54.8354 49C58.4253 49 61.3354 51.9101 61.3354 55.5C61.3354 59.0898 58.4253 62 54.8354 62C51.2456 62 48.3354 59.0898 48.3354 55.5Z" fill="white" fill-opacity="0.05"/>
<path fill-rule="evenodd" clip-rule="evenodd" d="M35.4188 6.5C35.4188 3.50845 37.8439 1.08333 40.8354 1.08333C43.827 1.08333 46.2521 3.50845 46.2521 6.5C46.2521 9.49154 43.827 11.9167 40.8354 11.9167C37.8439 11.9167 35.4188 9.49154 35.4188 6.5ZM34.3354 6.5C34.3354 2.91014 37.2456 -4.25574e-06 40.8354 -4.09882e-06C44.4253 -3.9419e-06 47.3354 2.91014 47.3354 6.5C47.3354 10.0898 44.4253 13 40.8354 13C37.2456 13 34.3354 10.0898 34.3354 6.5Z" fill="white" fill-opacity="0.05"/>
</g>
<defs>
<clipPath id="clip0_5221_106505">
<rect width="300" height="390" fill="white"/>
</clipPath>
</defs>
</svg>
