<svg width="16" height="16" viewBox="0 0 16 16" fill="none" xmlns="http://www.w3.org/2000/svg">
<path fill-rule="evenodd" clip-rule="evenodd" d="M8 2H2C1.44772 2 1 2.44772 1 3V8H8V2ZM9 16H14C15.1046 16 16 15.1046 16 14V9V8V3C16 1.89543 15.1046 1 14 1H9H8H2C0.895431 1 0 1.89543 0 3V8V9V14C0 15.1046 0.89543 16 2 16H8H9ZM8 15V9H1V14C1 14.5523 1.44772 15 2 15H8ZM14.0098 3.70711L13.3027 3L12.0049 4.29784L10.7071 3.00005L10 3.70715L11.2978 5.00494L10.0001 6.30267L10.7072 7.00978L12.0049 5.71205L13.3027 7.00983L14.0098 6.30272L12.712 5.00494L14.0098 3.70711ZM14.0098 10.7071L13.3027 10L12.0049 11.2978L10.7071 10L10 10.7072L11.2978 12.0049L10.0001 13.3027L10.7072 14.0098L12.0049 12.7121L13.3027 14.0098L14.0098 13.3027L12.712 12.0049L14.0098 10.7071Z" fill="#427E89"/>
</svg>
