<svg width="32" height="32" viewBox="0 0 32 32" fill="none" xmlns="http://www.w3.org/2000/svg">
<path fill-rule="evenodd" clip-rule="evenodd" d="M16 10H10C9.44772 10 9 10.4477 9 11V16H16V10ZM17 24H22C23.1046 24 24 23.1046 24 22V17V16V11C24 9.89543 23.1046 9 22 9H17H16H10C8.89543 9 8 9.89543 8 11V16V17V22C8 23.1046 8.89543 24 10 24H16H17ZM16 23V17H9V22C9 22.5523 9.44772 23 10 23H16ZM22.0098 11.7071L21.3027 11L20.0049 12.2978L18.7071 11L18 11.7072L19.2978 13.0049L18.0001 14.3027L18.7072 15.0098L20.0049 13.7121L21.3027 15.0098L22.0098 14.3027L20.712 13.0049L22.0098 11.7071ZM22.0098 18.7071L21.3027 18L20.0049 19.2978L18.7071 18L18 18.7072L19.2978 20.0049L18.0001 21.3027L18.7072 22.0098L20.0049 20.7121L21.3027 22.0098L22.0098 21.3027L20.712 20.0049L22.0098 18.7071Z" fill="#0190D2"/>
</svg>
