<svg width="94" height="94" viewBox="0 0 94 94" fill="none" xmlns="http://www.w3.org/2000/svg">
<circle cx="47" cy="47" r="47" fill="#D9D9D9"/>
<path d="M36.9115 73C35.7023 73 34.6641 72.575 33.8092 71.7129C32.9542 70.8507 32.5267 69.8186 32.5267 68.6164C32.5267 67.4143 32.9542 66.3821 33.8214 65.5321C34.6885 64.6821 35.7267 64.2571 36.9359 64.2571C38.145 64.2571 39.1832 64.6821 40.0382 65.5443C40.8931 66.4064 41.3206 67.4386 41.3206 68.6407C41.3206 69.8429 40.8931 70.875 40.026 71.725C39.1588 72.575 38.1206 73 36.9115 73ZM61.5832 73C60.374 73 59.3359 72.575 58.4809 71.7129C57.626 70.8507 57.1985 69.8186 57.1985 68.6164C57.1985 67.4143 57.626 66.3821 58.4931 65.5321C59.3603 64.6821 60.3985 64.2571 61.6076 64.2571C62.8168 64.2571 63.855 64.6821 64.7099 65.5443C65.5649 66.4064 65.9924 67.4386 65.9924 68.6407C65.9924 69.8429 65.5649 70.875 64.6977 71.725C63.8305 72.575 62.7924 73 61.5832 73ZM48.5267 42.4C47.9405 42.4 47.4397 42.2057 47.0489 41.805C46.658 41.4043 46.4504 40.9186 46.4504 40.3357C46.4504 39.7529 46.6458 39.255 47.0489 38.8664C47.4519 38.4779 47.9405 38.2714 48.5267 38.2714C49.113 38.2714 49.6137 38.4657 50.0046 38.8664C50.3954 39.2671 50.6031 39.7529 50.6031 40.3357C50.6031 40.9186 50.4076 41.4164 50.0046 41.805C49.6015 42.1936 49.113 42.4 48.5267 42.4ZM46.6947 34.1429V22H50.3588V34.1429H46.6947ZM36.9237 60.4321C35.2137 60.4321 33.9557 59.74 33.1618 58.3679C32.3679 56.9957 32.3802 55.5993 33.1985 54.1786L36.9237 47.4393L27.7634 28.0714H23V24.4286H30.084L40.4656 46.5286H58.2977L67.8244 29.5286L71 31.2286L61.6565 48.0464C61.2779 48.7264 60.7771 49.2486 60.1542 49.6129C59.5313 49.9893 58.7863 50.1714 57.9313 50.1714H39.6107L35.8244 56.7893H65.9924V60.4321H36.9237Z" fill="#153556"/>
</svg>
