<svg width="94" height="94" viewBox="0 0 94 94" fill="none" xmlns="http://www.w3.org/2000/svg">
<circle cx="47" cy="47" r="47" fill="#D9D9D9"/>
<path d="M56.5019 32.48L53.9326 35L49.4057 30.56V41.48H45.7353V30.56L41.2085 35L38.6392 32.48L47.5705 23.72L56.5019 32.48ZM35.9353 71C34.7241 71 33.6841 70.58 32.8277 69.728C31.9713 68.876 31.5431 67.856 31.5431 66.668C31.5431 65.48 31.9713 64.46 32.8399 63.62C33.7086 62.78 34.7486 62.36 35.9598 62.36C37.171 62.36 38.211 62.78 39.0674 63.632C39.9238 64.484 40.3521 65.504 40.3521 66.692C40.3521 67.88 39.9238 68.9 39.0552 69.74C38.1865 70.58 37.1466 71 35.9353 71ZM60.6494 71C59.4382 71 58.3983 70.58 57.5418 69.728C56.6854 68.876 56.2572 67.856 56.2572 66.668C56.2572 65.48 56.6854 64.46 57.5541 63.62C58.4227 62.78 59.4627 62.36 60.6739 62.36C61.8851 62.36 62.9251 62.78 63.7815 63.632C64.638 64.484 65.0662 65.504 65.0662 66.692C65.0662 67.88 64.638 68.9 63.7693 69.74C62.9006 70.58 61.8607 71 60.6494 71ZM22 26.6V23H29.0961L39.4956 44.84H57.1014L66.9014 28.04H71L61.0899 46.22C60.6372 46.976 60.0622 47.588 59.3403 48.056C58.6185 48.512 57.8355 48.752 56.9913 48.752H38.4557L35.03 54.992H65.0662V58.592H35.5805C34.039 58.592 32.8767 57.992 32.0692 56.792C31.2617 55.592 31.2127 54.368 31.9101 53.132L35.8252 46.052L26.7715 26.6H22Z" fill="#153556"/>
</svg>
