<svg width="92" height="92" viewBox="0 0 92 92" fill="none" xmlns="http://www.w3.org/2000/svg">
<circle cx="46" cy="46" r="45.5" stroke="#737791"/>
<path d="M29 65C28.2 65 27.5 64.7 26.9 64.1C26.3 63.5 26 62.8 26 62V31C26 30.2 26.3 29.5 26.9 28.9C27.5 28.3 28.2 28 29 28H32.25V25H35.5V28H57.5V25H60.75V28H64C64.8 28 65.5 28.3 66.1 28.9C66.7 29.5 67 30.2 67 31V62C67 62.8 66.7 63.5 66.1 64.1C65.5 64.7 64.8 65 64 65H29ZM29 62H64V40.5H29V62ZM29 37.5H64V31H29V37.5Z" fill="#737791"/>
<path d="M56.2605 50.912V52.864H51.7645V50.92L56.2605 50.912ZM58.8279 56V47.576H56.8359V46.104C57.4865 46.104 58.0199 46.0347 58.4359 45.896C58.8572 45.7573 59.1772 45.5627 59.3959 45.312C59.6199 45.0613 59.7532 44.768 59.7959 44.432H61.5719V56H58.8279Z" fill="#737791"/>
<path d="M40.4213 45.432L36.3493 52.16V57H33.6213V52.16L29.5813 45.432H32.5253L35.0053 49.832L37.4453 45.432H40.4213Z" fill="#737791"/>
<path d="M41.5822 49.3784L40 51.0811L45.5 57L51 51.0811L49.4178 49.3784L46.6301 52.3784L46.6301 45L44.3699 45L44.3699 52.3784L41.5822 49.3784Z" fill="#737791"/>
</svg>
