<svg width="92" height="92" viewBox="0 0 92 92" fill="none" xmlns="http://www.w3.org/2000/svg">
<circle cx="46" cy="46" r="45.5" stroke="#737791"/>
<path d="M29 65C28.2 65 27.5 64.7 26.9 64.1C26.3 63.5 26 62.8 26 62V31C26 30.2 26.3 29.5 26.9 28.9C27.5 28.3 28.2 28 29 28H32.25V25H35.5V28H57.5V25H60.75V28H64C64.8 28 65.5 28.3 66.1 28.9C66.7 29.5 67 30.2 67 31V62C67 62.8 66.7 63.5 66.1 64.1C65.5 64.7 64.8 65 64 65H29ZM29 62H64V40.5H29V62ZM29 37.5H64V31H29V37.5Z" fill="#737791"/>
<path d="M48.1001 49.4L46.0001 51.5L53.3001 58.8L60.6001 51.5L58.5001 49.4L54.8001 53.1L54.8001 44L51.8001 44L51.8001 53.1L48.1001 49.4Z" fill="#737791"/>
<path d="M38.4659 58V52.54L33.6859 44.04H37.0859L40.0859 49.6H40.1259L43.0059 44.04H46.3059L41.5259 52.52V58H38.4659Z" fill="#737791"/>
</svg>
