<svg width="58" height="58" viewBox="0 0 58 58" fill="none" xmlns="http://www.w3.org/2000/svg">
<g filter="url(#filter0_dd_18_3403)">
<rect x="12.5" y="8.5" width="33" height="33" rx="16.5" fill="white"/>
<path d="M31.875 23.375L31.5625 21H32.75C33.1562 21 33.5 20.6875 33.5 20.25V17.75C33.5 17.3438 33.1562 17 32.75 17H24.25C23.8125 17 23.5 17.3438 23.5 17.75V20.25C23.5 20.6875 23.8125 21 24.25 21H25.4062L25.0938 23.375C23.5625 24.25 22.5 25.7188 22.5 27.5C22.5 27.75 22.7188 28 23 28H28V31.75C28 31.7812 28 31.8125 28 31.8125L28.25 32.8125C28.3125 33.0625 28.6562 33.0625 28.7188 32.8125L28.9688 31.8125C28.9688 31.8125 28.9688 31.7812 28.9688 31.75V28H33.9688C34.25 28 34.4688 27.75 34.4688 27.5C34.5 25.7188 33.4062 24.25 31.875 23.375ZM23.5312 27C23.75 25.6562 24.75 24.5938 26 24.0312L26.5 20H24.5V18H32.5V20H30.5L30.9688 24.0312C32.2188 24.5938 33.25 25.6562 33.4375 27H23.5312Z" fill="#475257"/>
<rect x="12.5" y="8.5" width="33" height="33" rx="16.5" stroke="#E6E6E6"/>
</g>
<defs>
<filter id="filter0_dd_18_3403" x="0" y="0" width="58" height="58" filterUnits="userSpaceOnUse" color-interpolation-filters="sRGB">
<feFlood flood-opacity="0" result="BackgroundImageFix"/>
<feColorMatrix in="SourceAlpha" type="matrix" values="0 0 0 0 0 0 0 0 0 0 0 0 0 0 0 0 0 0 127 0" result="hardAlpha"/>
<feOffset dy="4"/>
<feGaussianBlur stdDeviation="6"/>
<feColorMatrix type="matrix" values="0 0 0 0 0 0 0 0 0 0 0 0 0 0 0 0 0 0 0.15 0"/>
<feBlend mode="normal" in2="BackgroundImageFix" result="effect1_dropShadow_18_3403"/>
<feColorMatrix in="SourceAlpha" type="matrix" values="0 0 0 0 0 0 0 0 0 0 0 0 0 0 0 0 0 0 127 0" result="hardAlpha"/>
<feOffset dy="2"/>
<feGaussianBlur stdDeviation="2"/>
<feColorMatrix type="matrix" values="0 0 0 0 0 0 0 0 0 0 0 0 0 0 0 0 0 0 0.15 0"/>
<feBlend mode="normal" in2="effect1_dropShadow_18_3403" result="effect2_dropShadow_18_3403"/>
<feBlend mode="normal" in="SourceGraphic" in2="effect2_dropShadow_18_3403" result="shape"/>
</filter>
</defs>
</svg>
