<svg width="36" height="32" viewBox="0 0 36 32" fill="none" xmlns="http://www.w3.org/2000/svg">
<path d="M7.5 20C7.5 19.1875 6.8125 18.5 6 18.5C5.125 18.5 4.5 19.1875 4.5 20C4.5 20.875 5.125 21.5 6 21.5C6.8125 21.5 7.5 20.875 7.5 20ZM18 9.5C18.8125 9.5 19.5 8.875 19.5 8C19.5 7.1875 18.8125 6.5 18 6.5C17.125 6.5 16.5 7.1875 16.5 8C16.5 8.875 17.125 9.5 18 9.5ZM9.5 10C8.625 10 8 10.6875 8 11.5C8 12.375 8.625 13 9.5 13C10.3125 13 11 12.375 11 11.5C11 10.6875 10.3125 10 9.5 10ZM27.125 10.75C26.6875 10.4375 26.0625 10.5 25.6875 10.875L19.625 18.375C19.125 18.1875 18.5625 18 18 18C15.75 18 14 19.8125 14 22C14 24.25 15.75 26 18 26C20.1875 26 22 24.25 22 22C22 21.125 21.6875 20.3125 21.1875 19.6875L27.25 12.1875C27.625 11.75 27.5 11.125 27.125 10.75ZM20 22C20 23.125 19.0625 24 18 24C16.875 24 16 23.125 16 22C16 20.9375 16.875 20 18 20C19.0625 20 20 20.9375 20 22ZM30 18.5C29.125 18.5 28.5 19.1875 28.5 20C28.5 20.875 29.125 21.5 30 21.5C30.8125 21.5 31.5 20.875 31.5 20C31.5 19.1875 30.8125 18.5 30 18.5ZM36 20C36 10.0625 27.9375 2 18 2C8 2 0 10.0625 0 20C0 23.3125 0.875 26.4375 2.4375 29.0625C2.75 29.6875 3.4375 30 4.125 30H31.8125C32.5 30 33.1875 29.6875 33.5 29.0625C35.0625 26.4375 36 23.3125 36 20ZM34 20C34 22.875 33.25 25.625 31.8125 28L4.125 28.0625C2.75 25.625 2 22.875 2 20C2 11.1875 9.125 4 18 4C26.8125 4 34 11.1875 34 20Z" fill="#97AEB2"/>
</svg>
