<?xml version="1.0" standalone="no"?>
<!DOCTYPE svg PUBLIC "-//W3C//DTD SVG 20010904//EN"
 "http://www.w3.org/TR/2001/REC-SVG-20010904/DTD/svg10.dtd">
<svg version="1.0" xmlns="http://www.w3.org/2000/svg"
 width="512.000000pt" height="512.000000pt" viewBox="0 0 512.000000 512.000000"
 preserveAspectRatio="xMidYMid meet">

<g transform="translate(0.000000,512.000000) scale(0.100000,-0.100000)"
fill="#000000" stroke="none">
<path d="M1385 4069 c-643 -54 -1187 -523 -1340 -1154 -143 -585 79 -1201 563
-1565 502 -377 1175 -407 1708 -77 49 31 122 83 161 116 40 34 77 61 83 61 6
0 43 -27 83 -61 455 -383 1120 -452 1658 -173 388 202 671 563 774 989 143
585 -79 1201 -563 1565 -502 377 -1175 407 -1708 77 -49 -31 -122 -83 -161
-116 -40 -34 -77 -61 -83 -61 -6 0 -43 27 -83 61 -174 147 -425 268 -648 313
-76 16 -281 37 -329 34 -14 0 -65 -4 -115 -9z m415 -158 c222 -48 451 -161
619 -309 l44 -38 -69 -91 c-149 -195 -249 -432 -289 -678 -19 -116 -19 -354 0
-470 40 -246 140 -483 289 -678 l69 -91 -44 -38 c-117 -103 -287 -203 -439
-258 -376 -136 -826 -93 -1165 114 -341 207 -569 528 -652 916 -25 120 -25
420 0 540 83 388 311 709 652 916 141 86 318 150 498 180 116 19 364 11 487
-15z m1998 14 c186 -28 360 -89 507 -179 341 -207 569 -527 652 -916 14 -65
18 -129 18 -270 0 -141 -4 -205 -18 -270 -83 -388 -311 -709 -653 -917 -338
-206 -788 -249 -1164 -113 -152 55 -322 155 -439 258 l-44 38 69 91 c149 195
249 432 289 678 19 116 19 354 0 470 -40 246 -140 483 -289 678 l-69 91 44 38
c296 259 712 381 1097 323z m-1178 -540 c159 -216 244 -435 271 -703 26 -267
-37 -562 -170 -794 -45 -77 -151 -228 -161 -228 -10 0 -116 151 -161 228 -133
232 -196 527 -170 794 27 268 112 487 271 703 30 41 57 75 60 75 3 0 30 -34
60 -75z"/>
<path d="M2450 3235 l0 -35 100 0 100 0 0 35 0 35 -100 0 -100 0 0 -35z"/>
<path d="M2350 2995 l0 -35 220 0 220 0 0 35 0 35 -220 0 -220 0 0 -35z"/>
<path d="M2270 2775 l0 -35 280 0 280 0 0 35 0 35 -280 0 -280 0 0 -35z"/>
<path d="M2270 2545 l0 -35 290 0 290 0 0 35 0 35 -290 0 -290 0 0 -35z"/>
<path d="M2300 2325 l0 -35 260 0 260 0 0 35 0 35 -260 0 -260 0 0 -35z"/>
<path d="M2350 2105 l0 -35 198 2 197 3 3 33 3 32 -200 0 -201 0 0 -35z"/>
<path d="M2470 1885 l0 -35 100 0 100 0 0 35 0 35 -100 0 -100 0 0 -35z"/>
</g>
</svg>
