<svg width="92" height="92" viewBox="0 0 92 92" fill="none" xmlns="http://www.w3.org/2000/svg">
<circle cx="46" cy="46" r="45.5" stroke="#737791"/>
<path d="M29 65C28.2 65 27.5 64.7 26.9 64.1C26.3 63.5 26 62.8 26 62V31C26 30.2 26.3 29.5 26.9 28.9C27.5 28.3 28.2 28 29 28H32.25V25H35.5V28H57.5V25H60.75V28H64C64.8 28 65.5 28.3 66.1 28.9C66.7 29.5 67 30.2 67 31V62C67 62.8 66.7 63.5 66.1 64.1C65.5 64.7 64.8 65 64 65H29ZM29 62H64V40.5H29V62ZM29 37.5H64V31H29V37.5Z" fill="#737791"/>
<path d="M49.1001 49.4L47.0001 51.5L54.3001 58.8L61.6001 51.5L59.5001 49.4L55.8001 53.1L55.8001 44L52.8001 44L52.8001 53.1L49.1001 49.4Z" fill="#737791"/>
<path d="M42.7866 48.84H42.7266L41.7066 50.88L38.9866 55.82L36.3266 50.9L35.2666 48.7H35.2066V58H32.3466V44.04H35.5666L38.9866 50.58H39.0266L42.4066 44.04H45.6466V58H42.7866V48.84Z" fill="#737791"/>
</svg>
