<svg width="92" height="92" viewBox="0 0 92 92" fill="none" xmlns="http://www.w3.org/2000/svg">
<circle cx="46" cy="46" r="45.5" stroke="#737791"/>
<path d="M29 65C28.2 65 27.5 64.7 26.9 64.1C26.3 63.5 26 62.8 26 62V31C26 30.2 26.3 29.5 26.9 28.9C27.5 28.3 28.2 28 29 28H32.25V25H35.5V28H57.5V25H60.75V28H64C64.8 28 65.5 28.3 66.1 28.9C66.7 29.5 67 30.2 67 31V62C67 62.8 66.7 63.5 66.1 64.1C65.5 64.7 64.8 65 64 65H29ZM29 62H64V40.5H29V62ZM29 37.5H64V31H29V37.5Z" fill="#737791"/>
<path d="M58.2568 46.726L56.4122 45L50 51L56.4122 57L58.2568 55.274L55.0068 52.2329L63 52.2329L63 49.7671L55.0068 49.7671L58.2568 46.726Z" fill="#737791"/>
<path d="M32.7894 57V48.576H30.7974V47.104C31.4481 47.104 31.9814 47.0347 32.3974 46.896C32.8188 46.7573 33.1388 46.5627 33.3574 46.312C33.5814 46.0613 33.7148 45.768 33.7574 45.432H35.5334V57H32.7894ZM39.2851 57V55.736V55.088C39.2851 54.5013 39.3944 53.9973 39.6131 53.576C39.8317 53.1493 40.1197 52.7787 40.4771 52.464C40.8344 52.1493 41.2264 51.8747 41.6531 51.64C42.0851 51.4 42.5144 51.1813 42.9411 50.984C43.3731 50.7813 43.7677 50.5813 44.1251 50.384C44.4824 50.1813 44.7704 49.9627 44.9891 49.728C45.2077 49.488 45.3171 49.2053 45.3171 48.88C45.3171 48.48 45.1757 48.1493 44.8931 47.888C44.6104 47.6267 44.2237 47.496 43.7331 47.496C43.2317 47.496 42.7891 47.6453 42.4051 47.944C42.0264 48.2373 41.7837 48.712 41.6771 49.368H39.0931C39.0984 48.6 39.2717 47.9067 39.6131 47.288C39.9597 46.6693 40.4797 46.1787 41.1731 45.816C41.8664 45.4533 42.7411 45.272 43.7971 45.272C44.7037 45.272 45.4824 45.424 46.1331 45.728C46.7891 46.0267 47.2931 46.4453 47.6451 46.984C47.9971 47.5227 48.1731 48.1467 48.1731 48.856C48.1731 49.4373 48.0664 49.936 47.8531 50.352C47.6451 50.768 47.3651 51.1253 47.0131 51.424C46.6664 51.7173 46.2851 51.9707 45.8691 52.184C45.4584 52.3973 45.0451 52.592 44.6291 52.768C44.2131 52.944 43.8291 53.12 43.4771 53.296C43.1304 53.472 42.8504 53.6693 42.6371 53.888C42.4291 54.1067 42.3251 54.3707 42.3251 54.68V54.736H48.1331V57H39.2851Z" fill="#737791"/>
</svg>
